<svg xmlns="http://www.w3.org/2000/svg" viewBox="0 0 64 64"><path fill="#059dc6" d="M57,38V31a4,4,0,0,0-4-4H11a4,4,0,0,0-4,4v6"/><path fill="none" stroke="#53cef9" stroke-linejoin="round" stroke-width="2" d="M20.377 18a12 12 0 0 1 23.245 0M24.265 18.951a8 8 0 0 1 15.478.03M28.128 19.992a4 4 0 0 1 7.738-.023"/><path fill="#1485c4" d="M50 55h3a4 4 0 0 0 4-4V37a4 4 0 0 0-4-4H11a4 4 0 0 0-4 4V51a4 4 0 0 0 4 4H23.777a2.759 2.759 0 0 0 2.652-2h0a2.757 2.757 0 0 1 2.651-2h5.84a2.757 2.757 0 0 1 2.651 2h0a2.759 2.759 0 0 0 2.652 2H50zM4 37H7a0 0 0 0 1 0 0V47a0 0 0 0 1 0 0H4a1 1 0 0 1-1-1V38A1 1 0 0 1 4 37zM57 37h3a1 1 0 0 1 1 1v8a1 1 0 0 1-1 1H57a0 0 0 0 1 0 0V37A0 0 0 0 1 57 37z"/><line x1="41" x2="45" y1="30" y2="30" fill="none" stroke="#036093" stroke-linejoin="round" stroke-width="2"/><line x1="47" x2="49" y1="30" y2="30" fill="none" stroke="#036093" stroke-linejoin="round" stroke-width="2"/><path fill="#1485c4" d="M27,23H37a1,1,0,0,1,1,1v3a0,0,0,0,1,0,0H26a0,0,0,0,1,0,0V24A1,1,0,0,1,27,23Z"/><path fill="#059dc6" d="M48,46H16a2,2,0,0,1-2-2h0a2,2,0,0,1,2-2H48a2,2,0,0,1,2,2h0A2,2,0,0,1,48,46Z"/><line x1="10" x2="12" y1="37" y2="37" fill="none" stroke="#036093" stroke-linejoin="round" stroke-width="2"/><line x1="52" x2="54" y1="37" y2="37" fill="none" stroke="#036093" stroke-linejoin="round" stroke-width="2"/><line x1="52" x2="54" y1="51" y2="51" fill="none" stroke="#036093" stroke-linejoin="round" stroke-width="2"/><line x1="10" x2="12" y1="51" y2="51" fill="none" stroke="#036093" stroke-linejoin="round" stroke-width="2"/><rect width="1" height="10" x="6" y="37" fill="#0b79aa"/><rect width="1" height="10" x="57" y="37" fill="#0b79aa"/><rect width="12" height="1" x="26" y="26" fill="#0b79aa"/><g><path d="M44.591,17.752a13,13,0,0,0-25.183,0l1.938.5a11,11,0,0,1,21.308,0Z"/><path d="M38.775,19.233l1.936-.5A9,9,0,0,0,23.3,18.7l1.934.511a7,7,0,0,1,13.543.027Z"/><path d="M27.161 19.74l1.935.5a3 3 0 0 1 5.8-.017l1.933-.514a5 5 0 0 0-9.671.028zM60 36H58V31a5.006 5.006 0 0 0-5-5H39V24a2 2 0 0 0-2-2H27a2 2 0 0 0-2 2v2H19.024v2H53a3 3 0 0 1 3 3v2.026A4.948 4.948 0 0 0 53 32H11a4.948 4.948 0 0 0-3 1.026V31a3 3 0 0 1 3-3h6.064V26H11a5.006 5.006 0 0 0-5 5v5H4a2 2 0 0 0-2 2v8a2 2 0 0 0 2 2H6v3a5.006 5.006 0 0 0 5 5H23.777a3.773 3.773 0 0 0 3.613-2.726A1.764 1.764 0 0 1 29.08 52h5.84a1.765 1.765 0 0 1 1.69 1.275A3.773 3.773 0 0 0 40.223 56H48V54H40.223a1.765 1.765 0 0 1-1.69-1.274A3.773 3.773 0 0 0 34.92 50H29.08a3.773 3.773 0 0 0-3.613 2.725A1.765 1.765 0 0 1 23.777 54H11a3 3 0 0 1-3-3V37a3 3 0 0 1 3-3H53a3 3 0 0 1 3 3V51a3 3 0 0 1-3 3H50v2h3a5.006 5.006 0 0 0 5-5V48h2a2 2 0 0 0 2-2V38A2 2 0 0 0 60 36zM27 26V24H37v2zM4 46V38H6v8zm54 0V38h2v8z"/><rect width="4" height="2" x="41" y="29"/><rect width="2" height="2" x="47" y="29"/><path d="M51,44a3,3,0,0,0-3-3H16a3,3,0,0,0,0,6H48A3,3,0,0,0,51,44Zm-3,1H16a1,1,0,0,1,0-2H48a1,1,0,0,1,0,2Z"/><rect width="2" height="2" x="10" y="36"/><rect width="2" height="2" x="52" y="36"/><rect width="2" height="2" x="52" y="50"/><rect width="2" height="2" x="10" y="50"/></g></svg>